<?xml version="1.0" standalone="no"?><!DOCTYPE svg PUBLIC "-//W3C//DTD SVG 1.1//EN" "http://www.w3.org/Graphics/SVG/1.1/DTD/svg11.dtd"><svg t="1754882916370" class="icon" viewBox="0 0 1024 1024" version="1.1" xmlns="http://www.w3.org/2000/svg" p-id="2937" xmlns:xlink="http://www.w3.org/1999/xlink" width="200" height="200"><path d="M969.174 471.893V115.627A112.64 112.64 0 0 0 860.374 0H163.2A112.64 112.64 0 0 0 54.4 116.48v791.04A112.64 112.64 0 0 0 163.2 1024h697.6a112.64 112.64 0 0 0 108.8-116.48V471.467zM450.347 898.56a32.427 32.427 0 0 1-45.653 0l-59.734-60.587-59.306 61.014a32.427 32.427 0 0 1-45.654 0 34.133 34.133 0 0 1 0-46.934l59.734-61.44-60.16-61.013a34.133 34.133 0 0 1 0-46.933 31.573 31.573 0 0 1 42.666 0l59.307 61.013 62.72-61.013a31.147 31.147 0 0 1 42.667 0 34.133 34.133 0 0 1 0 46.933l-55.894 61.44 59.307 62.293a33.28 33.28 0 0 1 0 45.654zM446.934 512H373.12v75.947a27.307 27.307 0 0 1-27.306 27.306 27.307 27.307 0 0 1-26.88-27.306V512H245.12a27.733 27.733 0 1 1 0-55.467h73.814v-78.08a27.307 27.307 0 1 1 54.186 0v76.374h73.814a28.16 28.16 0 0 1 27.733 28.16A27.733 27.733 0 0 1 446.934 512z m318.293 369.067H581.76a31.573 31.573 0 0 1-29.44-29.44 32 32 0 0 1 29.44-34.56h183.467a32.427 32.427 0 0 1 29.867 29.866 32 32 0 0 1-29.867 32.854z m-144.64-93.014v-2.986h11.947z m145.92-21.333h-184.32a32.427 32.427 0 0 1 0-64.427h184.32a32.427 32.427 0 0 1 0 64.427z m2.987-247.893H579.2a33.28 33.28 0 1 1 0-66.56h190.294a33.28 33.28 0 1 1 0 66.56zM865.067 198.4c0 21.76-22.613 40.533-54.187 42.667H213.547c-31.573 0-55.893-20.054-54.613-42.667v-42.667c0-22.186 23.04-42.666 54.613-42.666H810.88c31.574 0 55.894 19.626 54.187 42.666z" p-id="2938"></path></svg>