<?xml version="1.0" standalone="no"?><!DOCTYPE svg PUBLIC "-//W3C//DTD SVG 1.1//EN" "http://www.w3.org/Graphics/SVG/1.1/DTD/svg11.dtd"><svg t="1754882959817" class="icon" viewBox="0 0 1024 1024" version="1.1" xmlns="http://www.w3.org/2000/svg" p-id="3365" xmlns:xlink="http://www.w3.org/1999/xlink" width="200" height="200"><path d="M877.056 16.384h-619.52c-135.68 0-246.272 110.592-246.272 246.272v619.52c0 74.752 60.416 135.68 135.68 135.68h619.52c136.192 0 246.272-110.08 246.272-246.272v-619.52a135.26 135.26 0 0 0-135.68-135.68zM281.6 764.416c-28.16 0-51.2-23.04-51.2-51.2s23.04-51.2 51.2-51.2 51.2 23.04 51.2 51.2-22.528 51.2-51.2 51.2z m0-196.096c-28.16 0-51.2-23.04-51.2-51.2s23.04-51.2 51.2-51.2 51.2 23.04 51.2 51.2-22.528 51.2-51.2 51.2z m0-196.096c-28.16 0-51.2-23.04-51.2-51.2s23.04-51.2 51.2-51.2 51.2 23.04 51.2 51.2-22.528 51.2-51.2 51.2z m512 340.992c0 28.16-23.04 51.2-51.2 51.2H480.256c-28.16 0-51.2-23.04-51.2-51.2s23.04-51.2 51.2-51.2H742.4c28.16 0 51.2 23.04 51.2 51.2z m0-196.096c0 28.16-23.04 51.2-51.2 51.2H480.256c-28.16 0-51.2-23.04-51.2-51.2s23.04-51.2 51.2-51.2H742.4c28.16 0 51.2 23.04 51.2 51.2z m0-196.096c0 28.16-23.04 51.2-51.2 51.2H480.256c-28.16 0-51.2-23.04-51.2-51.2s23.04-51.2 51.2-51.2H742.4c28.16 0 51.2 23.04 51.2 51.2z" p-id="3366"></path></svg>