<?xml version="1.0" standalone="no"?><!DOCTYPE svg PUBLIC "-//W3C//DTD SVG 1.1//EN" "http://www.w3.org/Graphics/SVG/1.1/DTD/svg11.dtd"><svg t="1754882906331" class="icon" viewBox="0 0 1024 1024" version="1.1" xmlns="http://www.w3.org/2000/svg" p-id="2795" xmlns:xlink="http://www.w3.org/1999/xlink" width="200" height="200"><path d="M314.324 292.999c24.207 0.095 44.072-19.16 44.72-43.36V52.6c-0.647-24.2-20.512-43.455-44.72-43.36-23.945 0-43.36 19.415-43.36 43.36v197.04c0.048 23.927 19.433 43.312 43.36 43.359z m393.599 0c24.21 0.095 44.07-19.16 44.72-43.36V52.6c-0.65-24.2-20.51-43.455-44.72-43.36-23.945 0-43.36 19.415-43.36 43.36v197.04c0 23.944 19.415 43.359 43.36 43.359zM402.084 118.36h219.279v65.6H402.084v-65.6z m475.919 0h-81.52v65.2h84.64c25.2 0.345 45.535 20.72 45.84 45.92v152H96.085V229.56c0.48-25.232 21-45.472 46.24-45.6h85.2v-65.6h-81.36c-63.345 0.265-114.592 51.615-114.72 114.96v666.558c-0.752 62.69 49.455 114.12 112.152 114.87 0.16 0 0.328 0 0.488 0.01h733.758c63.31-0.265 114.545-51.57 114.72-114.88V233.32c-0.131-63.28-51.281-114.608-114.56-114.96zM497.929 810.758c-74.175 0.185-134.465-59.815-134.645-133.995-0.177-74.175 59.815-134.465 133.995-134.645 74.175-0.18 134.46 59.815 134.645 133.995v0.325c0.099 74.095-59.901 134.22-133.995 134.32z" p-id="2796"></path></svg>