<?xml version="1.0" standalone="no"?><!DOCTYPE svg PUBLIC "-//W3C//DTD SVG 1.1//EN" "http://www.w3.org/Graphics/SVG/1.1/DTD/svg11.dtd"><svg t="1754882965400" class="icon" viewBox="0 0 1024 1024" version="1.1" xmlns="http://www.w3.org/2000/svg" p-id="3507" xmlns:xlink="http://www.w3.org/1999/xlink" width="200" height="200"><path d="M519.92689778 652.03313778v-7.63335111c102.16106667-73.00096 101.77080889-199.43196445 101.57511111-302.1824v-15.46126222c0-148.74168889-89.63754667-237.40074667-239.74912-237.40074667h-7.63335111c-144.04494222 0-223.30936889 84.35256889-223.30936889 237.40074667 0 77.30744889 0 234.07502222 117.81916444 317.6448v6.06663111C132.02204445 669.84277334 3.82862222 725.81688889 3.82862222 815.06190222c0 124.08263111 122.51704889 184.36323555 374.40056889 184.36323556 322.34154667 0 390.05752889-100.20636445 390.05752889-184.36323556 0-95.50734222-157.94062222-145.61052445-248.35982222-163.02876444z" p-id="3508"></path><path d="M987.09504 781.59530667c-19.96231111 0-36.20636445-16.24405333-36.40206222-36.20750222-0.39139555-26.61717333-115.66648889-100.59662222-224.48355556-113.51381333-18.39786667-2.15267555-32.09671111-17.80963555-32.09671111-36.20636445V520.31715556c0-11.15591111 5.08700445-21.52789333 13.69884444-28.37845334 61.45479111-49.12355555 108.03427555-156.17934222 108.03427556-248.94805333 0-125.06112-84.54826667-151.28689778-155.39768889-151.28689777-20.15800889 0-36.40206222-16.24405333-36.40206222-36.40206223s16.24405333-36.4032 36.4032-36.4032c140.71808 0 228.20181333 85.91815111 228.20181333 224.28785778 0 107.83857778-50.29774222 228.00725333-121.73425778 293.96195555v27.98705778c104.51171555 22.31182222 256.77710222 95.50848 256.77710223 180.44814222 0 19.96344889-16.24405333 36.01180445-36.20750223 36.20750223-0.19569778-0.19569778-0.19569778-0.19569778-0.39139555-0.19569778z" p-id="3509"></path></svg>