<?xml version="1.0" standalone="no"?><!DOCTYPE svg PUBLIC "-//W3C//DTD SVG 1.1//EN" "http://www.w3.org/Graphics/SVG/1.1/DTD/svg11.dtd"><svg t="1754883255581" class="icon" viewBox="0 0 1024 1024" version="1.1" xmlns="http://www.w3.org/2000/svg" p-id="4218" xmlns:xlink="http://www.w3.org/1999/xlink" width="200" height="200"><path d="M965.973 764.587c-20.48-44.374-71.68-119.467-85.333-177.494-10.24-58.026-10.24-88.746-17.067-126.293-3.413-37.547 13.654-146.773-27.306-184.32-40.96-40.96-112.64-34.133-160.427-61.44-47.787-30.72-64.853-54.613-68.267-75.093-3.413-20.48 0-34.134 0-34.134s-6.826-27.306-20.48-34.133c-13.653-6.827-122.88 0-122.88 0s-27.306 6.827-27.306 34.133c-3.414 27.307-37.547 95.574-102.4 116.054-61.44 23.893-129.707 30.72-150.187 95.573-20.48 64.853-3.413 116.053-17.067 197.973-10.24 81.92-17.066 122.88-40.96 163.84C102.4 720.213 40.96 860.16 40.96 877.227s27.307 44.373 47.787 47.786c20.48 3.414 54.613-23.893 71.68-47.786s71.68-129.707 81.92-174.08 37.546-146.774 44.373-167.254c6.827-20.48 13.653-64.853 13.653-64.853s30.72 177.493 34.134 194.56c0 17.067 3.413 85.333-6.827 112.64-10.24 23.893-34.133 81.92-23.893 102.4 10.24 20.48 71.68 27.307 109.226 37.547 37.547 10.24 225.28 6.826 249.174 0 23.893-6.827 95.573-13.654 92.16-54.614 0-40.96-37.547-85.333-40.96-122.88-3.414-40.96-3.414-116.053 6.826-150.186 10.24-34.134 30.72-105.814 30.72-105.814s23.894 98.987 30.72 133.12c6.827 34.134 27.307 157.014 58.027 194.56 30.72 37.547 78.507 122.88 112.64 116.054 34.133-6.827 58.027-30.72 54.613-47.787-3.413-20.48-20.48-71.68-40.96-116.053zM375.467 484.693c-3.414 0-6.827-3.413-6.827-6.826s3.413-6.827 6.827-6.827 6.826 3.413 6.826 6.827-3.413 6.826-6.826 6.826z m296.96 0c-3.414 0-6.827-3.413-6.827-6.826s3.413-6.827 6.827-6.827 6.826 3.413 6.826 6.827-3.413 6.826-6.826 6.826z" p-id="4219"></path></svg>