<?xml version="1.0" standalone="no"?><!DOCTYPE svg PUBLIC "-//W3C//DTD SVG 1.1//EN" "http://www.w3.org/Graphics/SVG/1.1/DTD/svg11.dtd"><svg t="1754883000429" class="icon" viewBox="0 0 1024 1024" version="1.1" xmlns="http://www.w3.org/2000/svg" p-id="3792" xmlns:xlink="http://www.w3.org/1999/xlink" width="200" height="200"><path d="M184.889 913.067a85.433 85.433 0 0 1-85.333-85.334V184.89a85.419 85.419 0 0 1 85.333-85.333h566.556a85.703 85.703 0 0 1 77.383 49.322L545.323 514.844l-17.152 262.7 231.452-84.737 77.156-106.311v241.237a85.433 85.433 0 0 1-85.334 85.334H184.89z m0.398-211.911a25.458 25.458 0 0 0 25.415 25.415h189.156a25.415 25.415 0 1 0 0-50.845H210.702a25.458 25.458 0 0 0-25.415 25.43z m0-203.378a25.458 25.458 0 0 0 25.415 25.415h257.75a25.415 25.415 0 1 0 0-50.845h-257.75a25.444 25.444 0 0 0-25.415 25.43z m0-203.378a25.458 25.458 0 0 0 25.415 25.415h360.633a25.415 25.415 0 1 0 0-50.844H210.702a25.444 25.444 0 0 0-25.415 25.429z m385.82 404.196c0.669-6.429 10.155-90.738 14.65-130.22l120.163 87.539a70467.755 70467.755 0 0 0-121.486 52.394 9.5 9.5 0 0 1-13.34-9.642l0.014-0.071z m26.326-163.784l222.08-297.94 137.955 100.45-222.08 297.928-137.955-100.438zM870.4 343.765L720.924 548.736a15.644 15.644 0 0 0 3.542 21.988 16.114 16.114 0 0 0 22.286-3.613l149.461-204.97a15.644 15.644 0 0 0-3.57-22.03 16.114 16.114 0 0 0-22.286 3.612l0.043 0.042z m-39.922-121.429l7.822-10.496a26.581 26.581 0 0 1 36.879-5.504l95.488 69.575a25.842 25.842 0 0 1 5.575 36.395l-7.822 10.482-137.942-100.452z" p-id="3793"></path></svg>