<?xml version="1.0" standalone="no"?><!DOCTYPE svg PUBLIC "-//W3C//DTD SVG 1.1//EN" "http://www.w3.org/Graphics/SVG/1.1/DTD/svg11.dtd"><svg t="1754882930532" class="icon" viewBox="0 0 1024 1024" version="1.1" xmlns="http://www.w3.org/2000/svg" p-id="3079" xmlns:xlink="http://www.w3.org/1999/xlink" width="200" height="200"><path d="M518.217 432.64V73.143A73.143 73.143 0 0 1 603.43 1.097a512 512 0 0 1 419.474 419.474 73.143 73.143 0 0 1-72.046 85.212H591.36a73.143 73.143 0 0 1-73.143-73.143z" p-id="3080"></path><path d="M493.714 566.857h340.297a73.143 73.143 0 0 1 73.143 85.577A457.143 457.143 0 1 1 371.566 117.76a73.143 73.143 0 0 1 85.577 73.143v339.383a36.571 36.571 0 0 0 36.571 36.571z" p-id="3081"></path></svg>