<?xml version="1.0" standalone="no"?><!DOCTYPE svg PUBLIC "-//W3C//DTD SVG 1.1//EN" "http://www.w3.org/Graphics/SVG/1.1/DTD/svg11.dtd"><svg t="1754883304820" class="icon" viewBox="0 0 1024 1024" version="1.1" xmlns="http://www.w3.org/2000/svg" p-id="3727" xmlns:xlink="http://www.w3.org/1999/xlink" width="200" height="200"><path d="M747.008 422.912s137.216-195.072 148.992-211.968c11.776-16.896 19.456-44.544-16.384-67.584-35.84-23.552-45.568-27.648-74.752 4.096-29.184 31.744-302.592 360.448-302.592 360.448h178.176l25.088-29.696s74.752 4.096 74.752 33.792-193.024 37.888-269.312 37.888c-76.8 0-257.024-12.8-257.024-42.496 0-29.696 174.08-42.496 215.552-42.496l49.664-59.392s-422.912 7.68-431.104 105.984c-8.192 98.304 30.208 280.576 231.936 385.536 0 0 9.728 14.848 12.288 29.696s7.168 76.8 182.272 76.288c198.144-0.512 189.44-70.144 194.56-89.088 5.632-18.944 3.072-17.408 20.48-25.6s196.608-65.536 219.648-368.64c1.024 0.512 16.896-61.952-202.24-96.768zM492.544 143.36c33.28 0 59.904-27.648 59.904-61.44S525.312 20.48 492.544 20.48c-33.28 0-59.904 27.648-59.904 61.44-0.512 33.792 26.624 61.44 59.904 61.44zM313.856 244.736c24.064 0 43.52-19.968 43.52-44.544 0-24.576-19.456-44.544-43.52-44.544s-43.52 19.968-43.52 44.544c0 24.576 19.456 44.544 43.52 44.544z m138.752 64c20.48 0 36.864-16.896 36.864-38.4 0-20.992-16.384-38.4-36.864-38.4s-36.864 16.896-36.864 38.4 16.384 38.4 36.864 38.4z m-173.568 46.592c0 16.384 12.8 29.696 28.672 29.696 15.872 0 28.672-13.312 28.672-29.696 0-16.384-12.8-29.696-28.672-29.696-15.872 0-28.672 13.312-28.672 29.696z" fill="" p-id="3728"></path></svg>