<?xml version="1.0" standalone="no"?><!DOCTYPE svg PUBLIC "-//W3C//DTD SVG 1.1//EN" "http://www.w3.org/Graphics/SVG/1.1/DTD/svg11.dtd"><svg t="1754882942677" class="icon" viewBox="0 0 1024 1024" version="1.1" xmlns="http://www.w3.org/2000/svg" p-id="3222" xmlns:xlink="http://www.w3.org/1999/xlink" width="200" height="200"><path d="M914.944 392.704c0-39.424-31.744-71.168-71.168-71.168h-660.48c-39.424 0-71.168 31.744-71.168 71.168v434.688c0 39.424 31.744 71.168 71.168 71.168h660.48c39.424 0 71.168-31.744 71.168-71.168V773.12c0-20.48-16.896-37.376-37.376-37.376h-174.08c-67.584 0-122.368-55.808-122.368-124.416s54.784-124.416 122.368-124.416h174.08c20.48 0 37.376-16.896 37.376-37.376v-56.832zM795.136 148.992c-7.168-24.576-31.232-28.16-45.568-24.576L179.712 289.28h655.36l-39.936-140.288z" p-id="3223"></path><path d="M630.272 610.304c0 40.448 32.256 73.216 72.192 73.216s72.192-32.768 72.192-73.216-32.256-73.216-72.192-73.216-72.192 32.768-72.192 73.216z" p-id="3224"></path></svg>